<svg width="46" height="46" viewBox="0 0 46 46" fill="none" xmlns="http://www.w3.org/2000/svg">
<path fill-rule="evenodd" clip-rule="evenodd" d="M23 46C35.7025 46 46 35.7025 46 23C46 10.2975 35.7025 0 23 0C10.2975 0 0 10.2975 0 23C0 35.7025 10.2975 46 23 46Z" fill="white"/>
<path d="M12.8457 29.8858C13.3013 28.7469 14.4044 28 15.6311 28H31.3689C32.5956 28 33.6987 28.7469 34.1543 29.8858L35.3543 32.8858C36.1426 34.8564 34.6913 37 32.5689 37H14.4311C12.3087 37 10.8574 34.8564 11.6457 32.8858L12.8457 29.8858Z" fill="#FFC633"/>
<path d="M15 12C15 9.23858 17.2386 7 20 7H26C28.7614 7 31 9.23858 31 12V22C31 24.7614 28.7614 27 26 27H20C17.2386 27 15 24.7614 15 22V12Z" fill="#7359FF"/>
<path d="M19.0009 12.2106C19.0011 12.2106 19.0012 12.2106 19.0013 12.2107L25.0646 14.3641C26.3355 14.8155 27.372 15.7584 27.9413 16.981L28.1386 17.4047C29.5824 20.5055 27.3566 24.0658 23.9367 24.1258V24.1258C21.3267 24.1716 19.1737 22.093 19.1278 19.483L18.9999 12.2117C18.9999 12.2111 19.0004 12.2106 19.0009 12.2106V12.2106Z" fill="#FC6B6B"/>
</svg>
